<svg height="512" viewBox="0 0 64 64" width="512" xmlns="http://www.w3.org/2000/svg"><g id="Filled_outline" data-name="Filled outline"><path d="m53 61h-42l4-5s-4-7-4-24 4-24 4-24l-4-5h42l-4 5s4 7 4 24-4 24-4 24z" fill="#d3843d"/><path d="m18 12h28v38h-28z" fill="#f9bb4b"/><path d="m26 23h3a3 3 0 0 1 3 3v1a0 0 0 0 1 0 0h-3a3 3 0 0 1 -3-3v-1a0 0 0 0 1 0 0z" fill="#fcf05a"/><path d="m35 23h3a0 0 0 0 1 0 0v1a3 3 0 0 1 -3 3h-3a0 0 0 0 1 0 0v-1a3 3 0 0 1 3-3z" fill="#fcf05a" transform="matrix(-1 0 0 -1 70 50)"/><path d="m26 27h3a3 3 0 0 1 3 3v1a0 0 0 0 1 0 0h-3a3 3 0 0 1 -3-3v-1a0 0 0 0 1 0 0z" fill="#e8d738"/><path d="m35 27h3a0 0 0 0 1 0 0v1a3 3 0 0 1 -3 3h-3a0 0 0 0 1 0 0v-1a3 3 0 0 1 3-3z" fill="#e8d738" transform="matrix(-1 0 0 -1 70 58)"/><path d="m26 31h3a3 3 0 0 1 3 3v1a0 0 0 0 1 0 0h-3a3 3 0 0 1 -3-3v-1a0 0 0 0 1 0 0z" fill="#fcf05a"/><path d="m35 31h3a0 0 0 0 1 0 0v1a3 3 0 0 1 -3 3h-3a0 0 0 0 1 0 0v-1a3 3 0 0 1 3-3z" fill="#fcf05a" transform="matrix(-1 0 0 -1 70 66)"/><path d="m26 35h3a3 3 0 0 1 3 3v1a0 0 0 0 1 0 0h-3a3 3 0 0 1 -3-3v-1a0 0 0 0 1 0 0z" fill="#e8d738"/><path d="m35 35h3a0 0 0 0 1 0 0v1a3 3 0 0 1 -3 3h-3a0 0 0 0 1 0 0v-1a3 3 0 0 1 3-3z" fill="#e8d738" transform="matrix(-1 0 0 -1 70 74)"/><path d="m26 39h3a3 3 0 0 1 3 3v1a0 0 0 0 1 0 0h-3a3 3 0 0 1 -3-3v-1a0 0 0 0 1 0 0z" fill="#fcf05a"/><path d="m35 39h3a0 0 0 0 1 0 0v1a3 3 0 0 1 -3 3h-3a0 0 0 0 1 0 0v-1a3 3 0 0 1 3-3z" fill="#fcf05a" transform="matrix(-1 0 0 -1 70 82)"/><path d="m34 22a2 2 0 0 1 -4 0c0-1.105 2-4 2-4s2 2.9 2 4z" fill="#e8d738"/><path d="m13.818 55.876-3.6 4.5a1 1 0 0 0 .782 1.624h42a1 1 0 0 0 .781-1.625l-3.6-4.5c.97-2.075 3.819-9.402 3.819-23.875s-2.849-21.8-3.818-23.876l3.6-4.5a1 1 0 0 0 -.782-1.624h-42a1 1 0 0 0 -.781 1.625l3.6 4.5c-.97 2.075-3.819 9.402-3.819 23.875s2.849 21.8 3.818 23.876zm1.663-48.876-2.4-3h37.838l-2.4 3h-4.519v2h4.376c.844 1.84 3.624 8.965 3.624 23 0 16.454-3.831 23.438-3.868 23.5a1 1 0 0 0 .087 1.121l2.7 3.379h-37.838l2.4-3h8.519v-2h-8.376c-.844-1.84-3.624-8.965-3.624-23s2.782-21.164 3.624-23h7.376v-2z"/><path d="m17 51h30v-40h-30zm2-38h26v36h-26z"/><path d="m26 55h2v2h-2z"/><path d="m30 55h2v2h-2z"/><path d="m32.823 17.432-.823-1.192-.823 1.192c-.655.947-2.177 3.29-2.177 4.568h-4v2a3.959 3.959 0 0 0 .556 2h-.556v2a3.959 3.959 0 0 0 .556 2h-.556v2a3.959 3.959 0 0 0 .556 2h-.556v2a3.959 3.959 0 0 0 .556 2h-.556v2a4 4 0 0 0 4 4h2v2h2v-2h2a4 4 0 0 0 4-4v-2h-.556a3.959 3.959 0 0 0 .556-2v-2h-.556a3.959 3.959 0 0 0 .556-2v-2h-.556a3.959 3.959 0 0 0 .556-2v-2h-.556a3.959 3.959 0 0 0 .556-2v-2h-4c0-1.278-1.522-3.621-2.177-4.568zm-3.823 24.568a2 2 0 0 1 -2-2h2a2 2 0 0 1 2 2zm0-4a2 2 0 0 1 -2-2h2a2 2 0 0 1 2 2zm0-4a2 2 0 0 1 -2-2h2a2 2 0 0 1 2 2zm0-4a2 2 0 0 1 -2-2h2a2 2 0 0 1 2 2zm0-4a2 2 0 0 1 -2-2h2a2 2 0 0 1 2 2zm3-3a1 1 0 0 1 -1-1 7.457 7.457 0 0 1 1-2.147 7.462 7.462 0 0 1 1 2.147 1 1 0 0 1 -1 1zm3 19h-2a2 2 0 0 1 2-2h2a2 2 0 0 1 -2 2zm0-4h-2a2 2 0 0 1 2-2h2a2 2 0 0 1 -2 2zm0-4h-2a2 2 0 0 1 2-2h2a2 2 0 0 1 -2 2zm0-4h-2a2 2 0 0 1 2-2h2a2 2 0 0 1 -2 2zm0-4h-2a2 2 0 0 1 2-2h2a2 2 0 0 1 -2 2z"/></g></svg>