<svg height="480pt" viewBox="0 0 480 480" width="480pt" xmlns="http://www.w3.org/2000/svg"><path d="m340.441406 102.65625-8.882812-13.3125c12.773437-8.488281 20.445312-22.808594 20.441406-38.144531v-19.199219h16v19.199219c.007812 20.683593-10.339844 40-27.558594 51.457031zm0 0" fill="#e3584b"/><path d="m432 408h-88c-17.671875 0-32-14.328125-32-32v-88l64-104 24-80h48l16 88v184c0 17.671875-14.328125 32-32 32zm0 0" fill="#4398d1"/><path d="m472 72h-96c-4.886719-19.542969-20.59375-34.519531-40.34375-38.472656l-7.65625-1.527344v-24h80c35.347656 0 64 28.652344 64 64zm0 0" fill="#d6d9db"/><path d="m400 72h48v32h-48zm0 0" fill="#e3584b"/><path d="m312 356.886719v19.113281c0 17.671875 14.328125 32 32 32h88c17.671875 0 32-14.328125 32-32v-184l-.457031-2.503906c-41.125 63.628906-92.304688 120.160156-151.542969 167.390625zm0 0" fill="#3e8dc2"/><path d="m152 408h-112c-17.671875 0-32-14.328125-32-32v-114.550781c-.003906-8.929688 1.238281-17.816407 3.695312-26.402344l12.304688-43.046875-14.046875-42.144531c-1.296875-3.878907-1.953125-7.941407-1.953125-12.03125-.003906-11.292969 5.015625-22.007813 13.695312-29.230469l34.304688-28.59375h80l34.304688 28.59375c8.679687 7.222656 13.699218 17.9375 13.695312 29.230469-.003906 4.078125-.660156 8.128906-1.953125 12l-14.046875 42.175781 12.304688 43.070312c2.457031 8.585938 3.699218 17.472657 3.695312 26.402344v114.527344c0 17.671875-14.328125 32-32 32zm0 0" fill="#ffc24f"/><path d="m168 192 14.046875-42.144531c4.953125-14.859375.292969-31.238281-11.742187-41.261719l-12.242188-10.195312c-27.550781 132.648437-94.535156 207.777343-150.0625 248.800781v28.800781c0 17.671875 14.328125 32 32 32h112c17.671875 0 32-14.328125 32-32v-114.550781c.003906-8.929688-1.238281-17.816407-3.695312-26.402344zm0 0" fill="#ffb64f"/><path d="m136 80h-80v-24l16-16h48l16 16zm0 0" fill="#4398d1"/><path d="m72 8h48v32h-48zm0 0" fill="#4398d1"/><path d="m136 136c0-13.253906-17.910156-24-40-24s-40 10.746094-40 24 17.910156 24 40 24 40-10.746094 40-24zm0 0" fill="#ff7230"/><path d="m120 368h-48c-17.671875 0-32-14.328125-32-32v-96l90.761719 32.414062c12.734375 4.550782 21.238281 16.613282 21.238281 30.136719v33.449219c0 17.671875-14.328125 32-32 32zm0 0" fill="#ff7230"/><path d="m72 368h48c17.671875 0 32-14.328125 32-32v-33.449219c0-13.523437-8.503906-25.585937-21.238281-30.136719l-38.347657-13.695312c-15.140624 22.445312-32.71875 43.148438-52.414062 61.730469v15.550781c0 17.671875 14.328125 32 32 32zm0 0" fill="#fc641c"/><path d="m208 56h64c4.417969 0 8 3.582031 8 8v40h-80v-40c0-4.417969 3.582031-8 8-8zm0 0" fill="#4398d1"/><path d="m331.273438 163.710938-35.273438-27.710938v-32h-112v32l-12.601562 14.695312c-77.710938 90.664063-85.636719 221.949219-19.398438 321.304688h192l20-25.007812c33.441406-41.820313 48.796875-95.265626 42.648438-148.460938-6.144532-53.195312-33.285157-101.730469-75.382813-134.820312zm28.300781 209.761718c-2.832031 7.984375-11.480469 12.289063-19.558594 9.738282-8.082031-2.554688-12.6875-11.046876-10.414063-19.210938 10.777344-37.746094 3.125-78.367188-20.65625-109.601562l-4.121093-5.40625c-5.648438-7.742188-4.101563-18.574219 3.484375-24.429688 7.589844-5.855469 18.460937-4.597656 24.515625 2.828125l3.199219 4.097656c31.5625 40.207031 40.441406 93.738281 23.550781 141.984375zm0 0" fill="#ff7230"/><path d="m208 128h88v16h-88zm0 0" fill="#de5718"/><path d="m370.039062 204.136719c-6.050781 15.949219-13.171874 31.472656-21.3125 46.464843 21.101563 37.496094 25.054688 82.257813 10.847657 122.871094-2.832031 7.984375-11.480469 12.289063-19.558594 9.738282-8.082031-2.554688-12.6875-11.046876-10.414063-19.210938 7.199219-25.476562 6.078126-52.589844-3.203124-77.382812-57.238282 81.824218-137.167969 129.261718-192.109376 154.160156 5.195313 10.792968 11.113282 21.226562 17.710938 31.222656h192l20-25.007812c56.335938-70.40625 58.800781-169.738282 6.03125-242.855469zm0 0" fill="#fa6823"/><path d="m235.65625 240.382812c-2.527344-.222656-5.070312-.382812-7.65625-.382812-40.125-.015625-74.65625 28.351562-82.4375 67.71875-7.777344 39.363281 13.371094 78.730469 50.488281 93.980469 37.113281 15.246093 79.832031 2.117187 101.972657-31.347657-11.136719-66.191406-37.269532-106.113281-62.367188-129.96875zm0 0" fill="#ffa217"/><path d="m400 72h48v16h-48zm0 0" fill="#cf4e42"/><path d="m408 0h-80c-4.417969 0-8 3.582031-8 8v24c0 3.800781 2.675781 7.078125 6.398438 7.839844l7.65625 1.535156c6.523437 1.324219 12.660156 4.117188 17.945312 8.160156v1.601563c.015625 15.347656-7.65625 29.683593-20.441406 38.183593l8.882812 13.3125c12.523438-8.347656 21.566406-20.980468 25.421875-35.527343.988281 2.195312 1.792969 4.472656 2.402344 6.804687.875 3.566406 4.066406 6.074219 7.734375 6.089844h16v22.824219l-21.664062 72.207031 15.328124 4.601562 20.289063-67.632812h35.367187l14.679688 80.71875v183.28125c0 13.253906-10.746094 24-24 24h-20.664062v16h20.664062c22.082031-.027344 39.972656-17.917969 40-40v-184c0-.480469-.046875-.960938-.136719-1.433594l-15.863281-87.261718v-23.304688h16c4.417969 0 8-3.582031 8-8-.042969-39.746094-32.253906-71.9570312-72-72zm32 96h-32v-16h32zm8-32h-66.105469c-7.238281-19.652344-24.144531-34.152344-44.671875-38.3125l-1.222656-.246094v-9.441406h72c27.824219.035156 51.417969 20.464844 55.433594 48zm0 0"/><path d="m40 416h56v-16h-56c-13.253906 0-24-10.746094-24-24v-114.550781c0-8.179688 1.140625-16.316407 3.390625-24.175781l12.304687-43.074219c.445313-1.550781.40625-3.199219-.109374-4.726563l-14.050782-42.144531c-3.902344-11.742187-.21875-24.671875 9.289063-32.59375l32.070312-26.734375h74.210938l23.199219 19.34375 10.246093-12.289062-22.550781-18.808594v-20.246094c0-2.121094-.84375-4.15625-2.34375-5.65625l-13.65625-13.65625v-28.6875c0-4.417969-3.582031-8-8-8h-48c-4.417969 0-8 3.582031-8 8v28.6875l-13.65625 13.65625c-1.5 1.5-2.34375 3.535156-2.34375 5.65625v20.246094l-31.425781 26.195312c-14.558594 12.140625-20.183594 31.96875-14.175781 49.949219l13.257812 39.792969-11.65625 40.6875c-2.65625 9.292968-4.00390625 18.910156-4 28.578125v114.550781c.0273438 22.082031 17.917969 39.972656 40 40zm40-400h32v16h-32zm-16 43.3125 11.3125-11.3125h41.375l11.3125 11.3125v12.6875h-64zm0 0"/><path d="m144 136c0-17.945312-21.089844-32-48-32s-48 14.054688-48 32 21.089844 32 48 32 48-14.054688 48-32zm-80 0c0-7.550781 13.6875-16 32-16s32 8.449219 32 16-13.6875 16-32 16-32-8.449219-32-16zm0 0"/><path d="m87.199219 265.34375 5.375-15.0625-49.886719-17.816406c-2.449219-.875-5.171875-.503906-7.296875.996094s-3.390625 3.9375-3.390625 6.539062v96c.027344 22.082031 17.917969 39.972656 40 40h16v-16h-16c-13.253906 0-24-10.746094-24-24v-84.648438zm0 0"/><path d="m302.574219 259.238281c22.167969 29.25 29.328125 67.207031 19.335937 102.523438-3.824218 12.4375 3.082032 25.632812 15.480469 29.582031s25.664063-2.824219 29.738281-15.183594c17.945313-50.820312 8.582032-107.289062-24.800781-149.601562l-3.199219-4.085938c-8.703125-11.132812-24.765625-13.140625-35.941406-4.496094-11.179688 8.648438-13.269531 24.699219-4.683594 35.917969zm6.882812-23.160156c.839844-3.628906 3.691407-6.453125 7.332031-7.261719 3.636719-.804687 7.414063.546875 9.714844 3.480469l3.199219 4.085937c30.007813 38.019532 38.425781 88.769532 22.296875 134.441407-1.070312 2.566406-3.398438 4.390625-6.148438 4.820312-2.746093.429688-5.519531-.597656-7.324218-2.714843-1.460938-1.9375-1.929688-4.449219-1.253906-6.777344 11.359374-40.167969 3.214843-83.339844-22-116.609375l-4.121094-5.40625c-1.738282-2.296875-2.363282-5.253907-1.695313-8.058594zm0 0"/><path d="m145.34375 476.441406c1.484375 2.222656 3.980469 3.558594 6.65625 3.558594h192c2.429688 0 4.730469-1.101562 6.246094-3l20-25.007812c34.777344-43.488282 50.746094-99.0625 44.351562-154.375-6.390625-55.316407-34.613281-105.785157-78.390625-140.191407l-32.207031-25.3125v-28.113281c0-4.417969-3.582031-8-8-8h-8v-32c0-8.835938-7.164062-16-16-16h-64c-8.835938 0-16 7.164062-16 16v32h-8c-4.417969 0-8 3.582031-8 8v29.039062l-10.671875 12.457032c-79.722656 93.511718-87.875 228.515625-19.984375 330.945312zm62.65625-412.441406h64v32h-64zm-30.527344 91.902344 12.597656-14.695313c1.246094-1.449219 1.929688-3.296875 1.929688-5.207031v-24h96v16h-80v16h85.230469l33.097656 26c40.425781 31.773438 66.484375 78.375 72.386719 129.453125 5.902344 51.074219-8.84375 102.390625-40.953125 142.546875l-17.601563 22h-183.839844c-61.484374-96.171875-52.898437-221.230469 21.152344-308.097656zm0 0"/><path d="m228 416c30.867188.019531 59.679688-15.46875 76.6875-41.222656 1.125-1.695313 1.5625-3.75 1.222656-5.753906-9.695312-57.597657-31.46875-102.816407-64.742187-134.398438-1.308594-1.246094-3-2.015625-4.800781-2.175781-2.765626-.28125-5.535157-.449219-8.367188-.449219-50.808594 0-92 41.191406-92 92s41.191406 92 92 92zm0-168c1.398438 0 2.792969.054688 4.167969.144531 28.976562 28.511719 48.273437 68.96875 57.417969 120.351563-21.027344 29.117187-59.566407 39.539062-92.402344 24.988281-32.835938-14.550781-51.003906-50.097656-43.5625-85.234375 7.441406-35.132812 38.464844-60.261719 74.378906-60.25zm0 0"/></svg>