<svg id="Layer_1" enable-background="new 0 0 256 256" height="512" viewBox="0 0 256 256" width="512" xmlns="http://www.w3.org/2000/svg"><path d="m233.252 34.863h-31.165v-3.142-5.974h31.165c2.622 0 4.748-2.126 4.748-4.748s-2.126-4.748-4.748-4.748h-31.165-12.599-2.734-15.471c-6.408 0-11.603 5.195-11.603 11.603v91.027 15.58 97.548c0 5.035 4.082 9.116 9.117 9.116h11.741c5.035 0 9.117-4.081 9.117-9.116v-90.026c0-2.517 2.041-4.558 4.558-4.558h7.873 31.165c2.622 0 4.748-2.126 4.748-4.748s-2.126-4.748-4.748-4.748h-31.165v-8.909-.208h31.165c2.622 0 4.748-2.126 4.748-4.748s-2.126-4.748-4.748-4.748h-31.165v-9.116h31.165c2.622 0 4.748-2.126 4.748-4.748s-2.126-4.748-4.748-4.748h-31.165v-5.939-3.177h31.165c2.622 0 4.748-2.126 4.748-4.748s-2.126-4.748-4.748-4.748h-31.165v-6.112-3.004h31.165c2.622 0 4.748-2.126 4.748-4.748 0-2.622-2.126-4.748-4.748-4.748h-31.165v-9.12h31.165c2.622 0 4.748-2.126 4.748-4.748.001-2.623-2.125-4.749-4.747-4.749z" fill="#6bdddd"/><path d="m180.539 243.125h-11.741c-6.13 0-11.116-4.987-11.116-11.116v-204.156c0-7.5 6.103-13.603 13.603-13.603h61.968c3.721 0 6.748 3.027 6.748 6.748s-3.027 6.748-6.748 6.748h-29.165v5.117h29.165c3.721 0 6.748 3.027 6.748 6.748s-3.027 6.748-6.748 6.748h-29.165v5.117h29.165c3.721 0 6.748 3.027 6.748 6.748s-3.027 6.748-6.748 6.748h-29.165v5.117h29.165c3.721 0 6.748 3.027 6.748 6.748s-3.027 6.748-6.748 6.748h-29.165v5.117h29.165c3.721 0 6.748 3.027 6.748 6.748s-3.027 6.749-6.748 6.749h-29.165v5.116h29.165c3.721 0 6.748 3.027 6.748 6.748s-3.027 6.749-6.748 6.749h-29.165v5.116h29.165c3.721 0 6.748 3.027 6.748 6.748s-3.027 6.749-6.748 6.749h-39.038c-1.411 0-2.559 1.147-2.559 2.558v90.026c-.001 6.129-4.987 11.116-11.117 11.116zm-9.255-224.875c-5.295 0-9.603 4.308-9.603 9.603v204.155c0 3.924 3.192 7.116 7.116 7.116h11.741c3.924 0 7.116-3.192 7.116-7.116v-90.026c0-3.616 2.942-6.558 6.559-6.558h39.038c1.516 0 2.748-1.233 2.748-2.749 0-1.515-1.232-2.748-2.748-2.748h-31.165c-1.104 0-2-.896-2-2v-9.116c0-1.104.896-2 2-2h31.165c1.516 0 2.748-1.233 2.748-2.749 0-1.515-1.232-2.748-2.748-2.748h-31.165c-1.104 0-2-.896-2-2v-9.116c0-1.104.896-2 2-2h31.165c1.516 0 2.748-1.233 2.748-2.749 0-1.515-1.232-2.748-2.748-2.748h-31.165c-1.104 0-2-.896-2-2v-9.117c0-1.104.896-2 2-2h31.165c1.516 0 2.748-1.233 2.748-2.748s-1.232-2.748-2.748-2.748h-31.165c-1.104 0-2-.896-2-2v-9.117c0-1.104.896-2 2-2h31.165c1.516 0 2.748-1.233 2.748-2.748s-1.232-2.748-2.748-2.748h-31.165c-1.104 0-2-.896-2-2v-9.117c0-1.104.896-2 2-2h31.165c1.516 0 2.748-1.233 2.748-2.748s-1.232-2.748-2.748-2.748h-31.165c-1.104 0-2-.896-2-2v-9.117c0-1.104.896-2 2-2h31.165c1.516 0 2.748-1.233 2.748-2.748s-1.232-2.748-2.748-2.748h-61.967z" fill="#3762cc"/><path d="m120.698 241.125h-90.886c-5.019 0-9.089-4.069-9.089-9.089v-121.786c0-9.035 7.324-16.359 16.359-16.359h76.344c9.035 0 16.359 7.324 16.359 16.359v121.786c.001 5.02-4.068 9.089-9.087 9.089z" fill="#4671c6"/><path d="m20.724 135.243h109.062v56.349h-109.062z" fill="#e0ebfc"/><path d="m85.387 23.909h-64.663-7.154c-3.076 0-5.57 2.494-5.57 5.57v14.385c0 1.025.831 1.857 1.857 1.857h9.01c1.025 0 1.857-.831 1.857-1.857v-3.596c0-1.004.814-1.818 1.818-1.818h62.845c3.941 0 7.137-3.195 7.137-7.137v-.268c-.001-3.941-3.196-7.136-7.137-7.136z" fill="#e0ebfc"/><path d="m113.427 82.984c0-6.023-4.883-10.906-10.906-10.906h-54.532c-6.023 0-10.906 4.883-10.906 10.906v10.906h76.344z" fill="#6bdddd"/><path d="m97.976 72.078v-6.636c0-3.864-3.132-6.996-6.996-6.996h-31.45c-3.864 0-6.996 3.132-6.996 6.996v6.636z" fill="#e0ebfc"/><path d="m67.984 38.451h14.542v19.995h-14.542z" fill="#eaa97d"/><g fill="#3762cc"><path d="m120.698 243.125h-90.885c-6.114 0-11.088-4.974-11.088-11.088v-121.787c0-10.124 8.236-18.359 18.359-18.359h76.343c10.124 0 18.359 8.236 18.359 18.359v121.786c0 6.114-4.974 11.089-11.088 11.089zm-83.615-147.234c-7.918 0-14.359 6.441-14.359 14.359v121.786c0 3.909 3.18 7.088 7.088 7.088h90.885c3.909 0 7.088-3.18 7.088-7.088v-121.786c0-7.918-6.441-14.359-14.359-14.359z"/><path d="m18.867 47.722h-9.01c-2.127 0-3.857-1.73-3.857-3.857v-14.386c0-4.174 3.396-7.57 7.57-7.57h71.816c5.038 0 9.137 4.099 9.137 9.136v.269c0 5.038-4.099 9.137-9.137 9.137h-62.662v3.414c0 2.127-1.73 3.857-3.857 3.857zm-8.867-4h8.724v-3.453c0-2.105 1.712-3.818 3.817-3.818h62.845c2.833 0 5.137-2.304 5.137-5.137v-.269c0-2.832-2.304-5.136-5.137-5.136h-71.816c-1.969 0-3.57 1.602-3.57 3.57z"/><path d="m113.427 95.891h-76.344c-1.104 0-2-.896-2-2v-10.907c0-7.117 5.79-12.906 12.906-12.906h54.531c7.117 0 12.906 5.79 12.906 12.906v10.906c.001 1.105-.895 2.001-1.999 2.001zm-74.344-4h72.343v-8.906c0-4.911-3.995-8.906-8.906-8.906h-54.531c-4.911 0-8.906 3.995-8.906 8.906z"/><path d="m97.977 74.078h-45.443c-1.104 0-2-.896-2-2v-6.636c0-4.961 4.036-8.997 8.997-8.997h31.45c4.961 0 8.997 4.036 8.997 8.997v6.636c-.001 1.105-.897 2-2.001 2zm-43.443-4h41.443v-4.636c0-2.755-2.242-4.997-4.997-4.997h-31.45c-2.755 0-4.997 2.242-4.997 4.997v4.636z"/><path d="m82.526 60.445h-14.542c-1.104 0-2-.896-2-2v-19.994c0-1.104.896-2 2-2h14.542c1.104 0 2 .896 2 2v19.995c0 1.104-.896 1.999-2 1.999zm-12.542-4h10.542v-15.994h-10.542z"/></g><path d="m152.408 73.056h-24.246-23.927l5.962 140.756c.056 1.311 1.357 2.35 2.943 2.35h15.022 24.246 15.022c1.586 0 2.887-1.039 2.943-2.35l5.962-140.756z" fill="#a4c9ff"/><path d="m125.327 200.042-4.686-110.638c-.078-1.837 1.701-3.36 3.924-3.36h31.441c2.222 0 4.001 1.524 3.924 3.361l-4.687 110.638c-.074 1.748-1.809 3.133-3.924 3.133h-22.068c-2.115-.001-3.85-1.386-3.924-3.134z" fill="#e0ebfc"/><path d="m157.185 241.125h-33.799c-1.991 0-3.605-1.614-3.605-3.605v-21.357h41.009v21.357c0 1.991-1.614 3.605-3.605 3.605z" fill="#f9cfcf"/><path d="m157.185 241.125h-33.799c-1.991 0-3.605-1.614-3.605-3.605v-8.876h41.009v8.876c0 1.991-1.614 3.605-3.605 3.605z" fill="#f9a7a7"/><path d="m148.456 228.643v-4.372c0-1.692-1.372-3.064-3.064-3.064h-10.214c-1.692 0-3.064 1.372-3.064 3.064v4.372z" fill="#e0ebfc"/><path d="m176.335 73.056h-72.099v-12.847c0-.974.79-1.763 1.763-1.763h68.572c.974 0 1.763.79 1.763 1.763v12.847z" fill="#a4c9ff"/><path d="m167.43 218.163h-54.29c-2.669 0-4.839-1.874-4.94-4.265l-5.962-140.757c-.023-.544.177-1.075.554-1.468.377-.394.899-.616 1.444-.616h72.1c.545 0 1.066.223 1.443.616.378.394.578.924.555 1.468l-5.962 140.756c-.102 2.392-2.273 4.266-4.942 4.266zm-61.108-143.107 5.874 138.672c.005.108.347.435.944.435h54.29c.598 0 .94-.327.945-.435l5.873-138.671h-67.926z" fill="#3762cc"/><path d="m157.185 243.125h-33.799c-3.091 0-5.605-2.514-5.605-5.605v-21.357c0-1.104.896-2 2-2h41.01c1.104 0 2 .896 2 2v21.357c-.001 3.09-2.516 5.605-5.606 5.605zm-35.405-24.962v19.357c0 .885.72 1.605 1.605 1.605h33.799c.886 0 1.605-.72 1.605-1.605v-19.357z" fill="#3762cc"/><path d="m176.335 75.056h-72.1c-1.104 0-2-.896-2-2v-12.847c0-2.075 1.688-3.764 3.764-3.764h68.572c2.075 0 3.764 1.688 3.764 3.764v12.847c0 1.105-.896 2-2 2zm-70.1-4h68.1v-10.611h-68.1z" fill="#3762cc"/></svg>