<svg height="512" viewBox="0 0 512 512" width="512" xmlns="http://www.w3.org/2000/svg"><g id="Fill_out_line" data-name="Fill out line"><path d="m240 216h240v240h-240z" fill="#eb352f"/><path d="m480 216v240h-240l2.41992-.37a242.45819 242.45819 0 0 0 205.58008-239.63z" fill="#c7161f"/><path d="m232 184h256v32h-256z" fill="#e6e6e6"/><path d="m232 456h256v32h-256z" fill="#ccc"/><path d="m448 184h-88l-24.89014-24.89a106.22425 106.22425 0 0 1 -31.10986-75.11 59.96966 59.96966 0 0 1 56.3501-59.88c1.21-.08 2.41992-.12 3.6499-.12a59.98787 59.98787 0 0 1 60 60v22.2a106.15874 106.15874 0 0 0 8.59009 41.84z" fill="#ccc"/><path d="m32 456h320v32h-320z" fill="#e6e6e6"/><path d="m16 328h352v32h-352z" fill="#e6e6e6"/><path d="m104 328h.00008a71.99992 71.99992 0 0 0 71.99992-71.99992v-.00008a8 8 0 0 1 8-8h88a8 8 0 0 1 8 8v.00008a71.99992 71.99992 0 0 1 -71.99992 71.99992z" fill="#ccc"/><path d="m32 360h320v96h-320z" fill="#3ea7ff"/><path d="m352 360v96h-88a91.92675 91.92675 0 0 0 72-89.76v-6.24z" fill="#2b7cd4"/><path d="m419.23 135.49-7.95-67.6a44.19656 44.19656 0 0 0 -29.92017-36.77l-21.00976-7-.35007-.12h4a59.98787 59.98787 0 0 1 60 60v22.2a106.15874 106.15874 0 0 0 8.59009 41.84l15.40991 35.96h-64a44.19747 44.19747 0 0 0 35.23-48.51z" fill="#b3b3b3"/><path d="m496 216v-32a8.00008 8.00008 0 0 0 -8-8h-34.72461l-13.333-31.11084a97.6691 97.6691 0 0 1 -7.94239-38.69287v-22.19629a68 68 0 0 0 -136 0 113.47792 113.47792 0 0 0 33.45508 80.76953l11.23071 11.23047h-108.68579a8.00008 8.00008 0 0 0 -8 8v32a8.00008 8.00008 0 0 0 8 8h240v224h-96v16h104v16h-104v16h112a8.00008 8.00008 0 0 0 8-8v-32a8.00008 8.00008 0 0 0 -8-8v-224a8.00008 8.00008 0 0 0 8-8zm-155.23047-62.54395a97.5821 97.5821 0 0 1 -28.76953-69.45605 52 52 0 0 1 104 0v22.19629a113.59664 113.59664 0 0 0 9.23535 44.9956l10.63281 24.80811h-72.55468zm-100.76953 38.54395h240v16h-240z"/><path d="m376 328a8.00008 8.00008 0 0 0 -8-8h-112.05542a79.92632 79.92632 0 0 0 32.05542-64 16.01833 16.01833 0 0 0 -16-16h-88a16.01833 16.01833 0 0 0 -16 16 64.07239 64.07239 0 0 1 -64 64h-88a8.00008 8.00008 0 0 0 -8 8v32a8.00008 8.00008 0 0 0 8 8h8v120a8.00008 8.00008 0 0 0 8 8h320a8.00008 8.00008 0 0 0 8-8v-120h8a8.00008 8.00008 0 0 0 8-8zm-192-72h88a64.07239 64.07239 0 0 1 -64 64h-56.05542a79.92632 79.92632 0 0 0 32.05542-64zm-160 80h216v16h-216zm16 128h200v16h-200zm304 16h-88v-16h88zm0-32h-304v-80h304zm16-96h-104v-16h104z"/><path d="m256 384h16v48h-16z"/></g></svg>