<svg id="Capa_1" enable-background="new 0 0 512.591 512.591" height="512" viewBox="0 0 512.591 512.591" width="512" xmlns="http://www.w3.org/2000/svg"><g><g><path d="m373.991 131.087c-.167 0-.331.01-.497.012-2.715-15.729-16.416-27.698-32.921-27.698-4.742 0-9.25.994-13.336 2.774-2.808-20.409-20.307-36.133-41.488-36.133-14.407 0-27.112 7.274-34.651 18.348-6.055-6.098-14.442-9.875-23.714-9.875-16.507 0-30.208 11.97-32.922 27.702-4.111-1.807-8.651-2.817-13.429-2.817-16.505 0-30.206 11.969-32.921 27.698-.167-.002-.331-.012-.497-.012-21.624 0-39.153 17.529-39.153 39.153 0 21.623 17.529 39.153 39.153 39.153h226.377c21.624 0 39.153-17.529 39.153-39.153 0-21.623-17.53-39.152-39.154-39.152z" fill="#e3a76f"/></g><g><g><path d="m373.991 131.087c-.167 0-.331.01-.497.012-2.715-15.729-16.416-27.698-32.921-27.698-4.742 0-9.25.994-13.336 2.774-2.808-20.409-20.307-36.133-41.488-36.133-11.294 0-21.53 4.484-29.063 11.751 11.531 4.18 21.002 12.654 26.478 23.493 3.77 7.462 11.546 11.9 19.913 11.814.007 0 .014 0 .021.001 20.965 1.659 30.539 12.731 34.844 21.325 3.039 6.066 8.605 10.516 15.153 12.293 13.229 3.591 32.915 13.814 33.051 42.868.024 5.11-.867 10.014-2.442 14.589 16.926-4.32 29.442-19.666 29.442-37.937-.001-21.623-17.531-39.152-39.155-39.152z" fill="#d6995c"/></g></g><g><path d="m470.434 396.149h-428.278l-1.039-30.827c-1.951-57.887 5.87-115.689 23.135-170.976 4.629-14.825 18.357-24.92 33.888-24.92h316.31c15.531 0 29.259 10.095 33.888 24.92 17.264 55.287 25.086 113.089 23.135 170.976z" fill="#56988c"/></g><g><path d="m448.339 194.345c-4.629-14.825-18.357-24.92-33.888-24.92h-30c15.531 0 29.259 10.095 33.888 24.92 17.264 55.287 25.086 113.089 23.135 170.976l-1.039 30.827h30l1.039-30.827c1.95-57.887-5.871-115.689-23.135-170.976z" fill="#4e8a80"/></g><g><path d="m481.891 442.548h-451.192c-12.813 0-23.199-10.387-23.199-23.199 0-12.813 10.387-23.199 23.199-23.199h451.192c12.813 0 23.199 10.387 23.199 23.199.001 12.812-10.386 23.199-23.199 23.199z" fill="#77d1b3"/></g><g><path d="m481.891 396.149h-30c12.813 0 23.199 10.387 23.199 23.199 0 12.813-10.387 23.199-23.199 23.199h30c12.813 0 23.199-10.387 23.199-23.199.001-12.812-10.386-23.199-23.199-23.199z" fill="#67b59f"/></g><g><g><path d="m277.719 239.56c0 6.465-2.985 11.667-6.727 15.647-8.359 8.892-22.598 8.689-30.169-.883-2.934-3.71-5.299-8.547-5.951-14.764-1.236-11.767 9.592-21.424 21.424-21.424 11.831 0 21.423 9.592 21.423 21.424z" fill="#83e8a3"/></g><g><path d="m171.507 281.75c3.912 5.147 9.436 7.482 14.824 8.387 12.036 2.021 23.249-6.758 23.484-18.96.091-4.729-.953-10.01-4.196-15.355-6.137-10.116-20.6-11.251-30.02-4.092-9.42 7.16-11.252 20.601-4.092 30.02z" fill="#83e8a3"/></g><g><path d="m283.876 302.086c-16.671-11.331-38.587-11.331-55.259 0-9.979 6.783-18.835 15.694-18.835 25.957 0 18.857 12.681 30.883 31.506 26.703 9.863-2.19 20.054-2.19 29.918 0 18.824 4.18 31.505-7.846 31.505-26.703 0-10.263-8.856-19.174-18.835-25.957z" fill="#83e8a3"/></g><g><path d="m341.083 281.75c-3.912 5.147-9.436 7.482-14.824 8.387-12.036 2.021-23.249-6.758-23.484-18.96-.091-4.729.953-10.01 4.196-15.355 6.137-10.116 20.6-11.251 30.02-4.092 9.42 7.16 11.252 20.601 4.092 30.02z" fill="#83e8a3"/></g></g><g><path d="m288.092 295.883c-19.345-13.149-44.345-13.149-63.689 0-14.678 9.976-22.12 20.796-22.12 32.16 0 12.02 4.341 22.123 12.224 28.447 5.407 4.338 12.173 6.575 19.601 6.575 2.852 0 5.802-.33 8.808-.998 8.848-1.965 17.818-1.965 26.666 0 10.84 2.406 20.926.425 28.407-5.578 7.883-6.324 12.224-16.427 12.224-28.447-.002-11.363-7.445-22.183-22.121-32.159zm.509 48.908c-3.918 3.143-9.37 4.054-15.769 2.634-5.503-1.222-11.043-1.833-16.585-1.833-5.541 0-11.083.611-16.585 1.833-6.397 1.421-11.852.51-15.77-2.634-4.263-3.42-6.61-9.368-6.61-16.747 0-7.591 8.457-14.932 15.552-19.754 14.223-9.667 32.604-9.667 46.826 0 7.094 4.821 15.551 12.163 15.551 19.754 0 7.379-2.348 13.327-6.61 16.747z"/><path d="m234.94 258.976c4.859 6.144 12.145 9.86 19.988 10.195.394.017.787.025 1.18.025 7.664 0 15.024-3.188 20.349-8.852 5.732-6.099 8.762-13.286 8.762-20.784 0-15.948-12.975-28.923-28.924-28.923-8.359 0-16.668 3.685-22.227 9.857-5.048 5.605-7.412 12.655-6.656 19.851.733 6.974 3.267 13.243 7.528 18.631zm10.276-28.446c2.759-3.064 6.901-4.894 11.079-4.894 7.678 0 13.924 6.246 13.924 13.923 0 3.714-1.534 7.152-4.691 10.511-2.606 2.773-6.233 4.27-9.959 4.114-3.532-.15-6.68-1.753-8.863-4.514-2.472-3.124-3.943-6.79-4.375-10.894-.392-3.732 1.352-6.544 2.885-8.246z"/><path d="m217.314 271.321c.132-6.87-1.646-13.393-5.283-19.39-3.753-6.185-9.901-10.367-17.313-11.775-8.154-1.549-17.003.544-23.658 5.603-12.697 9.65-15.175 27.832-5.525 40.529.001 0 .001.001.001.001 4.539 5.97 11.3 9.858 19.553 11.244 1.564.263 3.135.392 4.694.392 6.473 0 12.768-2.228 17.786-6.392 6.042-5.012 9.594-12.379 9.745-20.212zm-19.323 8.668c-2.866 2.379-6.659 3.382-10.418 2.751-4.545-.763-7.848-2.572-10.096-5.529-4.645-6.113-3.452-14.865 2.659-19.51 3.326-2.528 7.732-3.578 11.782-2.809 2.25.428 5.341 1.611 7.288 4.819 2.14 3.529 3.186 7.338 3.109 11.321-.066 3.519-1.602 6.699-4.324 8.957z"/><path d="m341.53 245.759c-6.654-5.059-15.5-7.153-23.659-5.603-7.411 1.408-13.56 5.59-17.311 11.775-3.638 5.995-5.415 12.519-5.283 19.391.151 7.832 3.703 15.199 9.746 20.212 5.018 4.164 11.313 6.392 17.785 6.392 1.559 0 3.129-.129 4.693-.392 8.254-1.386 15.016-5.274 19.553-11.244 9.651-12.698 7.173-30.88-5.524-40.531zm-6.418 31.453c-2.247 2.956-5.55 4.765-10.096 5.528-3.757.63-7.551-.372-10.417-2.751-2.722-2.258-4.258-5.439-4.325-8.956-.077-3.985.97-7.794 3.109-11.321 1.946-3.209 5.037-4.392 7.287-4.819.875-.166 1.766-.248 2.659-.248 3.244 0 6.515 1.074 9.123 3.056 6.113 4.646 7.306 13.399 2.66 19.511z"/><path d="m481.892 388.649h-3.7l.778-23.075c1.983-58.876-5.914-117.237-23.472-173.464-5.083-16.275-18.99-27.732-35.536-29.832-3.493-20.522-20.002-36.046-40.559-38.384-5.461-16.53-20.936-27.991-38.831-27.991-2.662 0-5.287.253-7.858.755-6.508-19.942-25.377-34.113-46.965-34.113-13.618 0-26.481 5.602-35.729 15.291-6.65-4.436-14.458-6.818-22.637-6.818-17.07 0-31.939 10.428-38.012 25.738-2.726-.566-5.512-.852-8.339-.852-17.896 0-33.373 11.462-38.831 27.994-20.361 2.338-36.861 17.722-40.494 38.03h-3.567c-18.914 0-35.409 12.13-41.047 30.185-17.559 56.229-25.456 114.591-23.472 173.464l.778 23.075h-3.7c-16.928-.003-30.699 13.768-30.699 30.696s13.771 30.7 30.699 30.7h38.747c4.143 0 7.5-3.358 7.5-7.5s-3.357-7.5-7.5-7.5h-38.747c-8.656 0-15.699-7.043-15.699-15.7s7.043-15.699 15.699-15.699h451.192c8.656 0 15.699 7.043 15.699 15.699 0 8.657-7.043 15.7-15.699 15.7h-382.445c-4.143 0-7.5 3.358-7.5 7.5s3.357 7.5 7.5 7.5h382.445c16.928 0 30.699-13.772 30.699-30.7.001-16.928-13.771-30.699-30.698-30.699zm-433.279-23.58c-1.928-57.184 5.742-113.871 22.798-168.488 3.671-11.756 14.412-19.655 26.729-19.655h142.017c4.143 0 7.5-3.358 7.5-7.5s-3.357-7.5-7.5-7.5h-123.093c3.659-13.599 16.015-23.336 30.565-23.336h.004l.392.01c.03.001.06.001.089.001 3.645 0 6.769-2.624 7.39-6.224 2.148-12.443 12.885-21.474 25.53-21.474 3.612 0 7.115.734 10.411 2.183 2.111.928 4.534.833 6.566-.259 2.033-1.092 3.45-3.058 3.842-5.332 2.148-12.445 12.885-21.478 25.531-21.478 6.956 0 13.487 2.72 18.392 7.66 1.577 1.588 3.779 2.394 6.012 2.184 2.23-.206 4.25-1.397 5.51-3.248 6.424-9.436 17.06-15.069 28.452-15.069 17.09 0 31.732 12.749 34.058 29.655.319 2.326 1.711 4.369 3.758 5.518 2.049 1.149 4.516 1.273 6.668.336 3.273-1.427 6.752-2.15 10.34-2.15 12.646 0 23.383 9.031 25.531 21.474.627 3.629 3.795 6.273 7.479 6.224l.409-.012c14.6 0 26.909 9.72 30.554 23.338h-134.391c-4.142 0-7.5 3.358-7.5 7.5s3.358 7.5 7.5 7.5h144.294c12.316 0 23.058 7.899 26.729 19.655 17.055 54.614 24.725 111.301 22.798 168.488l-.795 23.581h-413.774z"/></g></g></svg>