<svg height="512" viewBox="0 0 64 64" width="512" xmlns="http://www.w3.org/2000/svg"><g id="Bread"><g fill="#aa6100"><path d="m21.3 19.41-1.48 5.54a3 3 0 1 1 -5.79-1.55l.34-1.28a33.88 33.88 0 0 1 6.93-2.71z"/><path d="m35.08 18.11-2.25 8.39a3 3 0 1 1 -5.8-1.55l1.83-6.84h.01c1.03-.07 2.07-.11 3.13-.11 1.04 0 2.07.04 3.08.11z"/><path d="m47.68 21.18-.81 3.02a3 3 0 0 1 -5.8-1.56l.92-3.42a35.262 35.262 0 0 1 5.69 1.96z"/></g><path d="m14.37 22.12-.34 1.28a3 3 0 1 0 5.79 1.55l1.48-5.54.58-2.16a40.15 40.15 0 0 1 7.53-1.17l-.54 2.03h-.01l-1.83 6.84a3 3 0 1 0 5.8 1.55l2.25-8.39.52-1.95a39.63 39.63 0 0 1 6.89 1.19l-.5 1.87-.92 3.42a3 3 0 0 0 5.8 1.56l.81-3.02.48-1.79c7.75 3.59 12.84 9.69 12.84 16.61 0 11.05-12.98 12-29 12s-29-.95-29-12c0-6.67 4.72-12.57 11.99-16.19z" fill="#ff9811"/><path d="m48.58 18.48a1.025 1.025 0 0 0 -.84 0 1.044 1.044 0 0 0 -.55.65l-.18.69a35.368 35.368 0 0 0 -3.8-1.3l.25-.91a1.017 1.017 0 0 0 -.71-1.23 40.919 40.919 0 0 0 -7.07-1.22 1.012 1.012 0 0 0 -1.05.74l-.31 1.17c-1.41-.07-2.78-.09-4.13-.03l.19-.7a1.015 1.015 0 0 0 -1.03-1.26 41.7 41.7 0 0 0 -7.72 1.2 1.013 1.013 0 0 0 -.72.71l-.43 1.62a35.557 35.557 0 0 0 -4.58 1.67l.05-.19a.925.925 0 0 0 .04-.29.994.994 0 0 0 -.87-.99 1.018 1.018 0 0 0 -.69.16c-7.79 3.92-12.43 10.28-12.43 17.03 0 12.02 13.59 13 30 13s30-.98 30-13c0-7.07-5.02-13.62-13.42-17.52zm-6.54 4.42.65-2.43a34.488 34.488 0 0 1 3.79 1.31l-.58 2.16a1.927 1.927 0 0 1 -.93 1.21 1.974 1.974 0 0 1 -1.52.2 1.927 1.927 0 0 1 -1.21-.93 1.969 1.969 0 0 1 -.2-1.52zm-12.4-3.83a41.1 41.1 0 0 1 4.15-.03l-1.93 7.2a2.007 2.007 0 0 1 -2.45 1.42 1.927 1.927 0 0 1 -1.21-.93 1.969 1.969 0 0 1 -.2-1.52zm-14.64 4.59.22-.84a33.175 33.175 0 0 1 4.65-1.94l-1.02 3.81a1.993 1.993 0 1 1 -3.85-1.03zm17 23.34c-18.16 0-28-1.75-28-11 0-5.42 3.48-10.61 9.42-14.19l-.36 1.33a4 4 0 0 0 7.73 2.07l1.9-7.13a38.116 38.116 0 0 1 5.39-.89l-2.02 7.5a4.038 4.038 0 0 0 .4 3.04 4.005 4.005 0 0 0 7.34-.97l2.55-9.53a38.384 38.384 0 0 1 4.91.84l-1.16 4.31a4.007 4.007 0 0 0 7.74 2.08l.97-3.64c7.03 3.6 11.19 9.21 11.19 15.18 0 9.25-9.84 11-28 11z"/></g></svg>