<svg id="Filled_Expand" height="512" viewBox="0 0 512 512" width="512" xmlns="http://www.w3.org/2000/svg" data-name="Filled Expand"><g id="_12_copy_2" data-name="12 copy 2"><g><g><path d="m124 440h-72a20 20 0 0 1 -20-20v-195.716a20 20 0 0 1 5.858-14.142l4.284-4.284a20 20 0 0 1 14.142-5.858h63.432a20 20 0 0 1 14.142 5.858l4.284 4.284a20 20 0 0 1 5.858 14.142v195.716a20 20 0 0 1 -20 20z" fill="#fedcde"/><g><path d="m58 136h60a10 10 0 0 1 10 10v54a0 0 0 0 1 0 0h-80a0 0 0 0 1 0 0v-54a10 10 0 0 1 10-10z" fill="#fa5131"/><path d="m72 392h32v16h-32z"/><path d="m72 360h32v16h-32z"/><path d="m72 328h32v16h-32z"/><path d="m72 296h32v16h-32z"/><path d="m143.8 204.485-4.284-4.284a28.318 28.318 0 0 0 -3.516-2.986v-51.215a18.021 18.021 0 0 0 -18-18h-60a18.021 18.021 0 0 0 -18 18v51.215a28.318 28.318 0 0 0 -3.515 2.986l-4.285 4.284a27.82 27.82 0 0 0 -8.2 19.8v23.715h16v-23.716a11.919 11.919 0 0 1 3.515-8.485l4.284-4.284a11.919 11.919 0 0 1 8.485-3.515h63.432a11.919 11.919 0 0 1 8.485 3.515l4.284 4.284a11.919 11.919 0 0 1 3.515 8.485v195.716a12.013 12.013 0 0 1 -12 12h-72a12.013 12.013 0 0 1 -12-12v-156h-16v156a28.032 28.032 0 0 0 28 28h72a28.032 28.032 0 0 0 28-28v-195.716a27.82 27.82 0 0 0 -8.2-19.799zm-87.8-12.485v-46a2 2 0 0 1 2-2h60a2 2 0 0 1 2 2v14h-48v16h48v16z"/></g></g><g><path d="m392 168h64a0 0 0 0 1 0 0v22a10 10 0 0 1 -10 10h-44a10 10 0 0 1 -10-10v-22a0 0 0 0 1 0 0z" fill="#fa5131" transform="matrix(-1 0 0 -1 848 368)"/><path d="m400 136h48v32h-48z" fill="#fedcde" transform="matrix(-1 0 0 -1 848 304)"/><path d="m440 136 8-32 24-16v-16h-136l16 24 48 8 8 32z" fill="#fa5131"/><path d="m408 136h32l8-32h-48z" fill="#b32c24"/><path d="m388 440h72a20 20 0 0 0 20-20v-195.716a20 20 0 0 0 -5.858-14.142l-4.284-4.284a20 20 0 0 0 -14.142-5.858h-63.432a20 20 0 0 0 -14.142 5.858l-4.284 4.284a20 20 0 0 0 -5.858 14.142v195.716a20 20 0 0 0 20 20z" fill="#fedcde"/><path d="m408 392h32v16h-32z"/><path d="m408 360h32v16h-32z"/><path d="m408 328h32v16h-32z"/><path d="m408 296h32v16h-32z"/><path d="m488 376v-151.716a27.82 27.82 0 0 0 -8.2-19.8l-4.284-4.284a27.867 27.867 0 0 0 -11.516-6.96v-15.24a18 18 0 0 0 -8-14.96v-27.04a8 8 0 0 0 -5.828-7.7l4.839-19.357 21.427-14.285a8 8 0 0 0 3.562-6.658v-16a8 8 0 0 0 -8-8h-136a8 8 0 0 0 -6.656 12.438l16 24a8 8 0 0 0 5.341 3.453l42.826 7.138 4.317 17.269a8 8 0 0 0 -5.828 7.702v27.04a18 18 0 0 0 -8 14.96v15.24a27.867 27.867 0 0 0 -11.515 6.961l-4.284 4.284a27.82 27.82 0 0 0 -8.2 19.8v195.715a28.032 28.032 0 0 0 28 28h72a28.032 28.032 0 0 0 28-28v-28h-16.001v28a12.013 12.013 0 0 1 -12 12h-72a12.013 12.013 0 0 1 -12-12v-195.716a11.919 11.919 0 0 1 3.515-8.485l4.284-4.284a11.919 11.919 0 0 1 8.485-3.515h63.432a11.919 11.919 0 0 1 8.485 3.515l4.284 4.284a11.919 11.919 0 0 1 3.515 8.485v151.716zm-77.754-264h27.508l-4 16h-19.508zm-2.246 32h32v16h-32zm-51.266-55.321-5.786-8.679h113.052v3.719l-18.422 12.281h-44.916zm43.266 103.321v-14a2 2 0 0 1 2-2h44a2 2 0 0 1 2 2v14z"/></g><g><circle cx="256" cy="272" fill="#fa8c50" r="72"/><path d="m284.779 310.4-9.609-12.8a32.251 32.251 0 0 0 10.162-12.813l14.655 6.42a48.286 48.286 0 0 1 -15.208 19.193z"/><path d="m304 272h-16a32.036 32.036 0 0 0 -32-32v-16a48.055 48.055 0 0 1 48 48z"/></g><g><path d="m297.585 440h-83.17a20 20 0 0 1 -18.973-13.675l-11.442-34.325v-16h144v16l-11.442 34.325a20 20 0 0 1 -18.973 13.675z" fill="#fedcde"/><path d="m176 344h160a0 0 0 0 1 0 0v22a10 10 0 0 1 -10 10h-140a10 10 0 0 1 -10-10v-22a0 0 0 0 1 0 0z" fill="#fa5131"/><path d="m336 336h-32.051a80 80 0 1 0 -95.9 0h-32.049a8 8 0 0 0 -8 8v22a18 18 0 0 0 8 14.96v11.04a8 8 0 0 0 .411 2.53l11.441 34.324a27.964 27.964 0 0 0 26.563 19.146h83.17a27.964 27.964 0 0 0 26.563-19.146l11.441-34.324a8 8 0 0 0 .411-2.53v-11.04a18 18 0 0 0 8-14.96v-22a8 8 0 0 0 -8-8zm-144-64a64 64 0 1 1 64 64 64.072 64.072 0 0 1 -64-64zm-8 80h144v14a2 2 0 0 1 -2 2h-140a2 2 0 0 1 -2-2zm136 38.7-11.031 33.1a11.986 11.986 0 0 1 -11.384 8.2h-83.17a11.985 11.985 0 0 1 -11.384-8.206l-11.031-33.094v-6.7h128z"/><path d="m232 400h48v16h-48z"/></g></g></g></svg>