<?xml version="1.0" standalone="no"?>
<!DOCTYPE svg PUBLIC "-//W3C//DTD SVG 20010904//EN"
 "http://www.w3.org/TR/2001/REC-SVG-20010904/DTD/svg10.dtd">
<svg version="1.0" xmlns="http://www.w3.org/2000/svg"
 width="294.000000pt" height="129.000000pt" viewBox="0 0 294.000000 129.000000"
 preserveAspectRatio="xMidYMid meet">

<g transform="translate(0.000000,129.000000) scale(0.100000,-0.100000)"
fill="#000000" stroke="none">
<path d="M1040 655 c0 -370 3 -565 10 -565 7 0 10 195 10 565 0 370 -3 565
-10 565 -7 0 -10 -195 -10 -565z"/>
<path d="M50 915 c0 -117 4 -185 10 -185 6 0 10 60 10 159 0 88 3 166 6 175 5
14 31 16 180 16 109 0 174 4 174 10 0 6 -70 10 -190 10 l-190 0 0 -185z"/>
<path d="M1455 766 c-4 -63 -4 -120 0 -125 3 -6 18 -11 33 -12 24 0 25 -1 7
-9 -14 -6 1 -9 48 -9 l67 -1 0 30 c0 28 -2 30 -41 30 -30 0 -38 -3 -32 -12 4
-7 -7 -2 -23 12 -28 22 -30 28 -21 55 5 17 10 41 12 54 2 28 24 39 78 40 34 1
37 3 37 31 l0 30 -79 0 -79 0 -7 -114z m89 93 c-2 -4 2 -10 8 -12 7 -3 3 -6
-10 -6 -15 -1 -21 3 -16 11 5 8 0 9 -14 6 -12 -4 -22 -2 -22 3 0 5 13 8 29 7
16 -1 28 -5 25 -9z"/>
<path d="M1956 869 c4 -7 0 -9 -13 -5 -39 12 -85 -62 -86 -139 -1 -89 48 -131
115 -98 34 18 57 58 41 74 -7 7 -18 3 -36 -15 -38 -38 -57 -26 -57 38 1 52 24
109 48 114 6 1 12 -2 12 -8 0 -5 5 -9 11 -7 6 1 14 -4 17 -12 3 -9 0 -11 -8
-6 -7 4 -16 2 -21 -6 -15 -23 -10 -29 21 -29 26 0 30 3 30 29 0 45 -10 61 -36
61 -13 0 -24 5 -24 10 0 6 -5 10 -11 10 -5 0 -7 -5 -3 -11z m-56 -85 c-6 -14
-8 -30 -5 -35 4 -5 -1 -6 -9 -3 -19 7 -19 6 -6 38 5 14 14 26 20 26 6 0 6 -9
0 -26z"/>
<path d="M2119 865 c-15 -8 -34 -32 -43 -55 -18 -44 -22 -140 -6 -140 6 0 10
-6 10 -14 0 -16 37 -46 57 -46 7 0 13 10 14 23 0 21 1 21 9 2 5 -11 9 -14 9
-7 1 7 5 11 10 7 5 -3 12 -1 16 5 3 5 -1 10 -9 10 -9 0 -16 4 -16 10 0 5 3 9
8 9 18 -3 32 2 32 12 0 5 -4 7 -10 4 -5 -3 -10 1 -10 9 0 23 -17 20 -25 -4 -3
-11 -15 -20 -26 -20 -16 0 -19 7 -19 54 0 64 14 106 34 106 15 0 29 -30 30
-62 1 -10 4 -18 9 -18 35 0 37 1 37 34 0 23 -9 45 -25 63 -13 15 -25 22 -25
16 0 -18 -20 -16 -20 2 0 18 -7 18 -41 0z m-42 -177 c-3 -8 -6 -5 -6 6 -1 11
2 17 5 13 3 -3 4 -12 1 -19z"/>
<path d="M2596 871 c-24 -9 -96 -192 -96 -244 0 -28 54 -19 58 9 3 23 48 39
77 28 8 -4 15 -1 15 5 0 6 -4 11 -10 11 -5 0 -10 11 -10 24 0 22 -3 24 -29 16
-22 -6 -31 -5 -35 6 -3 8 -2 14 3 14 5 0 12 11 15 25 8 30 22 33 31 6 3 -11
15 -23 26 -26 22 -7 24 -16 7 -33 -10 -10 -7 -16 10 -28 13 -9 22 -26 22 -41
0 -25 0 -26 -20 -8 -22 20 -36 15 -27 -10 6 -14 47 -21 59 -10 9 9 -33 219
-48 243 -15 24 -19 25 -48 13z m44 -32 c0 -6 -4 -7 -10 -4 -5 3 -10 11 -10 16
0 6 5 7 10 4 6 -3 10 -11 10 -16z m-65 -159 c-3 -5 -11 -10 -16 -10 -6 0 -7 5
-4 10 3 6 11 10 16 10 6 0 7 -4 4 -10z"/>
<path d="M1223 852 c-3 -7 -3 -43 1 -80 3 -37 6 -88 6 -114 0 -41 3 -48 20
-48 17 0 20 7 20 39 0 22 5 43 10 46 6 3 10 2 10 -4 0 -24 21 -62 31 -55 8 4
7 9 -2 15 -11 7 -10 9 3 9 26 0 32 20 12 35 -11 8 -14 15 -7 15 6 0 15 -5 18
-10 4 -6 11 -8 16 -5 5 4 9 -14 9 -39 0 -44 1 -46 30 -46 l30 0 0 114 c0 131
-4 146 -35 146 -18 0 -26 -11 -42 -52 -24 -62 -38 -70 -48 -26 -4 18 -9 36
-10 41 -1 4 -3 14 -4 22 -1 19 -61 17 -68 -3z m104 -117 c0 -8 -4 -12 -9 -9
-5 3 -6 10 -3 15 9 13 12 11 12 -6z"/>
<path d="M1693 863 c-32 -4 -33 -5 -33 -56 0 -29 -3 -82 -7 -119 l-6 -68 26 0
c22 0 26 5 29 37 2 20 8 38 15 40 11 4 46 -42 56 -71 2 -5 13 -3 26 4 19 10
21 14 10 21 -8 5 -11 9 -7 9 4 0 3 12 -3 28 -7 21 -5 36 11 67 11 22 16 41 11
43 -5 2 -7 11 -4 21 3 12 -4 25 -18 35 -23 16 -40 17 -106 9z m73 -25 c10 -16
11 -67 0 -61 -4 3 -5 -10 -2 -28 6 -31 5 -32 -6 -14 -7 12 -21 19 -30 17 -14
-3 -18 3 -18 27 0 17 5 31 12 31 6 0 8 3 5 7 -8 7 11 33 24 33 4 0 11 -5 15
-12z"/>
<path d="M1735 830 c-4 -6 3 -10 14 -10 25 0 27 6 6 13 -8 4 -17 2 -20 -3z"/>
<path d="M2263 852 c-3 -7 -3 -43 1 -80 3 -37 6 -88 6 -114 0 -41 3 -48 20
-48 17 0 20 7 20 39 0 22 5 43 10 46 6 3 10 2 10 -4 0 -24 21 -62 31 -55 8 4
7 9 -2 15 -11 7 -10 9 3 9 26 0 32 20 12 35 -11 8 -14 15 -7 15 6 0 15 -5 18
-10 4 -6 11 -8 16 -5 5 4 9 -14 9 -39 0 -44 1 -46 30 -46 l30 0 0 114 c0 131
-4 146 -35 146 -18 0 -26 -11 -42 -52 -24 -62 -38 -70 -48 -26 -4 18 -9 36
-10 41 -1 4 -3 14 -4 22 -1 19 -61 17 -68 -3z m104 -117 c0 -8 -4 -12 -9 -9
-5 3 -6 10 -3 15 9 13 12 11 12 -6z"/>
<path d="M2765 858 c-11 -6 -22 -12 -24 -14 -2 -2 8 -23 23 -48 l27 -45 -33
-63 c-18 -35 -34 -66 -36 -70 -2 -5 11 -8 30 -7 18 0 27 3 21 6 -15 6 -17 29
-3 38 6 3 7 -1 4 -9 -10 -26 11 -18 26 9 7 14 17 25 21 25 5 0 11 -11 15 -25
3 -14 10 -25 16 -25 5 0 6 -5 3 -10 -4 -6 5 -5 20 2 23 10 25 13 11 24 -9 6
-16 16 -16 22 0 6 -6 17 -13 24 -19 18 -47 78 -37 78 4 0 15 -15 24 -32 14
-30 16 -31 14 -8 -1 15 11 45 29 71 31 45 31 45 11 58 -19 12 -23 10 -39 -10
-13 -17 -14 -26 -6 -31 7 -5 2 -8 -14 -8 -18 0 -29 8 -40 29 -12 26 -17 28
-34 19z"/>
<path d="M1516 755 c-7 -20 3 -45 19 -45 8 0 25 4 39 9 38 15 24 51 -19 51
-20 0 -35 -6 -39 -15z"/>
<path d="M1468 479 c-32 -18 -22 -49 22 -66 27 -11 40 -22 38 -32 -4 -19 -46
-27 -61 -12 -17 17 -31 13 -17 -4 16 -20 74 -19 91 1 17 21 2 45 -37 57 -37
12 -47 28 -30 45 10 11 19 11 34 3 30 -16 40 -13 18 4 -23 17 -34 18 -58 4z"/>
<path d="M2058 420 c-8 -39 -11 -70 -6 -70 9 0 12 7 23 55 l7 30 21 -45 20
-45 15 38 c18 46 28 47 36 2 8 -40 40 -49 51 -15 4 13 15 20 31 20 13 0 29 -9
36 -20 24 -38 28 -20 7 31 -39 100 -39 100 -66 31 -14 -34 -29 -62 -33 -62 -5
0 -11 22 -15 48 -10 75 -20 81 -40 23 -10 -27 -21 -48 -25 -46 -4 2 -13 22
-20 45 -7 23 -17 43 -20 45 -4 2 -13 -27 -22 -65z m216 4 c9 -23 8 -24 -14
-24 -11 0 -20 2 -20 4 0 12 13 36 20 36 4 0 11 -7 14 -16z"/>
<path d="M1560 429 c0 -61 11 -79 50 -79 39 0 50 18 49 79 l-2 56 -6 -52 c-7
-58 -20 -77 -47 -71 -15 2 -20 14 -22 53 -5 71 -22 82 -22 14z"/>
<path d="M1691 413 c1 -38 4 -56 6 -40 3 19 10 27 24 27 10 0 28 9 39 20 30
30 11 60 -35 60 l-35 0 1 -67z m64 32 c0 -14 -8 -21 -27 -23 -24 -3 -28 0 -28
23 0 23 4 26 28 23 19 -2 27 -9 27 -23z"/>
<path d="M1790 415 l0 -65 43 2 c36 1 38 2 10 5 -27 4 -33 9 -33 28 0 19 6 24
33 28 l32 4 -32 1 c-28 2 -33 6 -33 26 0 20 6 25 33 29 28 3 26 4 -10 5 l-43
2 0 -65z"/>
<path d="M1901 413 c1 -37 4 -56 6 -40 5 34 16 34 42 0 12 -14 24 -23 28 -19
4 3 -1 14 -10 23 -16 16 -15 19 5 40 30 32 15 57 -36 61 l-36 3 1 -68z m64 32
c0 -14 -8 -21 -27 -23 -24 -3 -28 0 -28 23 0 23 4 26 28 23 19 -2 27 -9 27
-23z"/>
<path d="M2330 415 c0 -37 4 -65 10 -65 6 0 10 11 10 25 0 14 4 25 9 25 5 0
16 -11 25 -25 9 -14 21 -25 26 -25 6 0 3 11 -6 25 -16 24 -16 27 1 39 13 9 16
20 11 39 -6 24 -11 27 -46 27 l-40 0 0 -65z m68 28 c3 -19 -1 -23 -22 -23 -21
0 -26 5 -26 26 0 21 4 25 23 22 14 -2 23 -11 25 -25z"/>
<path d="M2440 416 c0 -37 4 -66 10 -66 6 0 10 12 10 26 l0 27 21 -27 c11 -14
25 -26 30 -26 6 0 -1 15 -16 34 l-25 33 21 27 c27 34 17 48 -10 15 -16 -19
-20 -21 -21 -7 0 9 -4 20 -10 23 -6 4 -10 -18 -10 -59z"/>
<path d="M2530 415 l0 -65 43 2 c36 1 38 2 10 5 -27 4 -33 9 -33 28 0 19 6 24
33 28 l32 4 -32 1 c-28 2 -33 6 -33 26 0 20 6 25 33 29 28 3 26 4 -10 5 l-43
2 0 -65z"/>
<path d="M2648 473 c8 -3 12 -26 12 -64 0 -33 4 -59 10 -59 6 0 10 26 10 59 0
48 3 60 18 64 9 3 -1 5 -23 5 -22 0 -34 -2 -27 -5z"/>
</g>
</svg>
